<svg xmlns="http://www.w3.org/2000/svg" version="1.1" xmlns:xlink="http://www.w3.org/1999/xlink" xmlns:svgjs="http://svgjs.dev/svgjs" width="1500" height="1500" viewBox="0 0 1500 1500"><rect width="1500" height="1500" fill="#ffffff"></rect><g transform="matrix(0.6666666666666666,0,0,0.6666666666666666,249.3939393939395,643.14201007279)"><svg viewBox="0 0 396 85" data-background-color="#ffffff" preserveAspectRatio="xMidYMid meet" height="321" width="1500" xmlns="http://www.w3.org/2000/svg" xmlns:xlink="http://www.w3.org/1999/xlink"><g id="tight-bounds" transform="matrix(1,0,0,1,0.23999999999995225,-0.05640587003338737)"><svg viewBox="0 0 395.52 85.11281174006675" height="85.11281174006675" width="395.52"><g><svg viewBox="0 0 564.7238308452743 121.52415326623971" height="85.11281174006675" width="395.52"><g transform="matrix(1,0,0,1,169.20383084527435,16.795306276303755)"><svg viewBox="0 0 395.52 87.9335407136322" height="87.9335407136322" width="395.52"><g id="textblocktransform"><svg viewBox="0 0 395.52 87.9335407136322" height="87.9335407136322" width="395.52" id="textblock"><g><svg viewBox="0 0 395.52 87.9335407136322" height="87.9335407136322" width="395.52"><g transform="matrix(1,0,0,1,0,0)"><svg width="395.52" viewBox="1.5 -36.1 163.94 36.45" height="87.9335407136322" data-palette-color="#3d3839"><g class="wordmark-text-0" data-fill-palette-color="primary" id="text-0"><path d="M6.6 0.2L6.6 0.2Q4.75 0.2 3.23-1.3 1.7-2.8 1.7-6.05L1.7-6.05Q1.7-9.3 2.33-12.33 2.95-15.35 3.78-18.15 4.6-20.95 5.23-23.48 5.85-26 5.85-28.25L5.85-28.25Q5.1-28.55 4.45-28.55L4.45-28.55Q3.55-28.55 2.95-28 2.35-27.45 2-26.5L2-26.5 1.5-26.65Q1.55-30.15 2.53-32.23 3.5-34.3 5.05-35.2 6.6-36.1 8.25-36.1L8.25-36.1Q10.75-36.1 12.73-34.48 14.7-32.85 16.28-30.05 17.85-27.25 19.03-23.73 20.2-20.2 21.05-16.38 21.9-12.55 22.4-8.85L22.4-8.85Q22.7-10.85 23.03-13.75 23.35-16.65 23.6-19.85 23.85-23.05 23.85-25.95L23.85-25.95Q23.85-28.05 23.7-29.78 23.55-31.5 23.2-32.75L23.2-32.75 23.2-33.15Q24.5-34.6 25.83-35.35 27.15-36.1 28.3-36.1L28.3-36.1Q30-36.1 31.13-34.63 32.25-33.15 32.25-30.45L32.25-30.45Q32.25-28.45 31.7-25.58 31.15-22.7 30.4-19.45 29.65-16.2 29.08-13.08 28.5-9.95 28.45-7.45L28.45-7.45Q28.45-6.75 28.55-5.95 28.65-5.15 29.6-5.15L29.6-5.15Q29.65-4.95 29.65-4.85 29.65-4.75 29.65-4.65L29.65-4.65Q29.6-2.75 28.1-1.28 26.6 0.2 24.1 0.2L24.1 0.2Q22.15 0.2 20.8-0.8 19.45-1.8 18.55-3.48 17.65-5.15 17.03-7.28 16.4-9.4 15.85-11.65L15.85-11.65Q14.85-15.55 13.78-19.07 12.7-22.6 10.9-25.55L10.9-25.55Q11-23.55 10.75-21.18 10.5-18.8 10.23-16.38 9.95-13.95 9.95-11.7L9.95-11.7Q9.95-9.7 10.3-8.03 10.65-6.35 11.55-5.05L11.55-5.05Q11.55-2.6 10-1.2 8.45 0.2 6.6 0.2ZM54.45 0.25L54.45 0.25Q52.7 0.25 51.4-0.9 50.1-2.05 50.1-4.65L50.1-4.65Q50.1-4.9 50.1-5.15 50.1-5.4 50.15-5.65L50.15-5.65Q48.65-2.65 46.77-1.23 44.9 0.2 43 0.2L43 0.2Q41.25 0.2 39.7-1.03 38.15-2.25 37.2-4.65 36.25-7.05 36.25-10.45L36.25-10.45Q36.25-13.95 37.22-16.7 38.2-19.45 39.8-21.35 41.4-23.25 43.3-24.23 45.2-25.2 47-25.2L47-25.2Q49-25.2 50.6-23.98 52.2-22.75 52.8-20.1L52.8-20.1Q52.95-20.95 53.02-21.65 53.1-22.35 53.1-22.6L53.1-22.6Q53.15-23.95 54.47-24.6 55.8-25.25 57.4-25.25L57.4-25.25Q58.8-25.25 60.05-24.7 61.3-24.15 61.75-22.85L61.75-22.85 61.85-22.55Q61.25-21.2 60.65-19.3 60.05-17.4 59.55-15.33 59.05-13.25 58.75-11.28 58.45-9.3 58.45-7.8L58.45-7.8Q58.45-6.15 58.8-5.53 59.15-4.9 59.65-4.9L59.65-4.9Q60.5-4.9 61.2-6.1L61.2-6.1 61.6-5.9Q61.6-4.2 60.5-2.8 59.4-1.4 57.75-0.58 56.1 0.25 54.45 0.25ZM46.3-6.1L46.3-6.1Q47.6-6.1 49.17-8.43 50.75-10.75 51.9-15.1L51.9-15.1Q52-15.55 52.1-15.98 52.2-16.4 52.25-16.8L52.25-16.8Q51.45-18.65 50.57-19.43 49.7-20.2 48.85-20.2L48.85-20.2Q47.6-20.2 46.52-18.88 45.45-17.55 44.77-15.55 44.1-13.55 44.1-11.55L44.1-11.55Q44.1-8.8 44.72-7.45 45.35-6.1 46.3-6.1ZM77.6 0.2L77.6 0.2Q75.6 0.2 73.95-0.68 72.3-1.55 71.25-3.25L71.25-3.25Q71.2-2.3 70.55-1.5 69.9-0.7 68.1-0.7L68.1-0.7Q66.1-0.7 65.15-1.8 64.2-2.9 64.2-4.7L64.2-4.7Q64.2-5.8 64.5-7.88 64.8-9.95 65.22-12.55 65.65-15.15 66.07-17.95 66.5-20.75 66.8-23.4 67.1-26.05 67.1-28.15L67.1-28.15Q67.1-29.55 66.95-30.6 66.8-31.65 66.4-32.25L66.4-32.25 66.4-32.55Q67.55-33.8 68.8-34.43 70.05-35.05 71.2-35.05L71.2-35.05Q72.9-35.05 74.1-33.7 75.3-32.35 75.3-29.4L75.3-29.4Q75.3-27.95 75-25.33 74.7-22.7 74.25-20.1L74.25-20.1Q76.05-22.65 78.07-24 80.1-25.35 82-25.35L82-25.35Q84.55-25.35 86.35-22.93 88.15-20.5 88.15-15.6L88.15-15.6Q88.15-12.7 87.47-9.88 86.8-7.05 85.45-4.78 84.1-2.5 82.12-1.15 80.15 0.2 77.6 0.2ZM75.1-4.85L75.1-4.85Q76.7-4.85 77.82-6.25 78.95-7.65 79.52-9.83 80.1-12 80.1-14.3L80.1-14.3Q80.1-15.8 79.85-17.18 79.6-18.55 79.1-19.43 78.6-20.3 77.8-20.3L77.8-20.3Q76.4-20.3 74.62-17.03 72.85-13.75 71.85-7.75L71.85-7.75Q72.75-4.85 75.1-4.85ZM104.04 0.2L104.04 0.2Q102.04 0.2 100.39-0.68 98.74-1.55 97.69-3.25L97.69-3.25Q97.64-2.3 96.99-1.5 96.34-0.7 94.54-0.7L94.54-0.7Q92.54-0.7 91.59-1.8 90.64-2.9 90.64-4.7L90.64-4.7Q90.64-5.8 90.94-7.88 91.24-9.95 91.67-12.55 92.09-15.15 92.52-17.95 92.94-20.75 93.24-23.4 93.54-26.05 93.54-28.15L93.54-28.15Q93.54-29.55 93.39-30.6 93.24-31.65 92.84-32.25L92.84-32.25 92.84-32.55Q93.99-33.8 95.24-34.43 96.49-35.05 97.64-35.05L97.64-35.05Q99.34-35.05 100.54-33.7 101.74-32.35 101.74-29.4L101.74-29.4Q101.74-27.95 101.44-25.33 101.14-22.7 100.69-20.1L100.69-20.1Q102.49-22.65 104.52-24 106.54-25.35 108.44-25.35L108.44-25.35Q110.99-25.35 112.79-22.93 114.59-20.5 114.59-15.6L114.59-15.6Q114.59-12.7 113.92-9.88 113.24-7.05 111.89-4.78 110.54-2.5 108.57-1.15 106.59 0.2 104.04 0.2ZM101.54-4.85L101.54-4.85Q103.14-4.85 104.27-6.25 105.39-7.65 105.97-9.83 106.54-12 106.54-14.3L106.54-14.3Q106.54-15.8 106.29-17.18 106.04-18.55 105.54-19.43 105.04-20.3 104.24-20.3L104.24-20.3Q102.84-20.3 101.07-17.03 99.29-13.75 98.29-7.75L98.29-7.75Q99.19-4.85 101.54-4.85ZM128.09 0.35L128.09 0.35Q124.44 0.35 122.04-1.13 119.64-2.6 118.44-5.03 117.24-7.45 117.24-10.25L117.24-10.25Q117.24-12.9 118.27-15.58 119.29-18.25 121.27-20.45 123.24-22.65 126.07-24 128.89-25.35 132.44-25.35L132.44-25.35Q136.84-25.35 138.87-23.38 140.89-21.4 140.89-18.6L140.89-18.6Q140.89-16.2 139.62-14.18 138.34-12.15 136.24-10.93 134.14-9.7 131.64-9.7L131.64-9.7Q130.34-9.7 128.99-10.1 127.64-10.5 126.34-11.35L126.34-11.35Q126.59-8.25 128.14-6.85 129.69-5.45 131.84-5.45L131.84-5.45Q133.34-5.45 134.84-6.03 136.34-6.6 137.62-7.53 138.89-8.45 139.59-9.5L139.59-9.5 139.94-9.25Q139.94-6.65 138.87-4.83 137.79-3 136.04-1.85 134.29-0.7 132.22-0.18 130.14 0.35 128.09 0.35ZM129.24-13.15L129.24-13.15Q130.84-13.15 131.84-14.08 132.84-15 133.34-16.25 133.84-17.5 133.84-18.45L133.84-18.45Q133.84-19.6 133.19-20.38 132.54-21.15 131.39-21.15L131.39-21.15Q130.49-21.15 129.42-20.5 128.34-19.85 127.49-18.28 126.64-16.7 126.39-13.9L126.39-13.9Q127.99-13.15 129.24-13.15ZM149.24 0.2L149.24 0.2Q147.44 0.2 146.04-1.28 144.64-2.75 144.64-5.45L144.64-5.45Q144.64-6.75 144.94-8.4 145.24-10.05 145.64-11.78 146.04-13.5 146.34-15.03 146.64-16.55 146.64-17.55L146.64-17.55Q146.64-18.6 146.26-19.23 145.89-19.85 145.29-19.85L145.29-19.85Q144.34-19.85 143.34-18.55L143.34-18.55 143.04-18.75Q142.99-19.55 143.39-20.65 143.79-21.75 144.64-22.78 145.49-23.8 146.81-24.5 148.14-25.2 149.94-25.2L149.94-25.2Q152.59-25.2 153.79-23.68 154.99-22.15 154.99-20L154.99-20Q154.99-19.65 154.96-19.28 154.94-18.9 154.89-18.55L154.89-18.55Q156.69-21.8 158.66-23.53 160.64-25.25 162.34-25.25L162.34-25.25Q163.94-25.25 164.69-24 165.44-22.75 165.44-21L165.44-21Q165.44-19.4 164.81-17.75 164.19-16.1 162.96-15.03 161.74-13.95 159.99-14L159.99-14 159.79-14.1Q159.74-15.4 158.94-16.15 158.14-16.9 157.14-16.9L157.14-16.9Q155.79-16.9 154.61-15.55 153.44-14.2 153.44-11.65L153.44-11.65Q153.44-10.1 153.79-8.3 154.14-6.5 154.14-5.25L154.14-5.25Q154.14-3.75 153.44-2.5 152.74-1.25 151.64-0.53 150.54 0.2 149.24 0.2Z" fill="#3d3839" data-fill-palette-color="primary"></path></g></svg></g></svg></g></svg></g></svg></g><g><svg viewBox="0 0 148.44483228776292 121.52415326623971" height="121.52415326623971" width="148.44483228776292"><g><svg xmlns="http://www.w3.org/2000/svg" xmlns:xlink="http://www.w3.org/1999/xlink" version="1.1" x="0" y="0" viewBox="4.3 11.799999999999997 82.45296025615374 67.50000000000001" style="enable-background:new 0 0 91 91;" xml:space="preserve" height="121.52415326623971" width="148.44483228776292" class="icon-icon-0" data-fill-palette-color="accent" id="icon-0"><g fill="#111111" data-fill-palette-color="accent"><path d="M66.8 28.6c1.9 0 3.4-1.5 3.4-3.4 0-1.9-1.5-3.4-3.4-3.4-1.9 0-3.4 1.5-3.4 3.4C63.4 27.1 64.9 28.6 66.8 28.6zM66.8 23.2c1.1 0 2 0.9 2 2 0 1.1-0.9 2-2 2-1.1 0-2-0.9-2-2C64.8 24.1 65.7 23.2 66.8 23.2z" fill="#111111" data-fill-palette-color="accent"></path><path d="M55.7 36c-1.9 0-3.4 1.5-3.4 3.4 0 1.9 1.5 3.4 3.4 3.4 1.9 0 3.4-1.5 3.4-3.4C59.1 37.5 57.5 36 55.7 36zM55.7 41.4c-1.1 0-2-0.9-2-2 0-1.1 0.9-2 2-2s2 0.9 2 2C57.7 40.5 56.8 41.4 55.7 41.4z" fill="#111111" data-fill-palette-color="accent"></path><path d="M26.3 25.5c1.2 0.3 2.6 0.6 4.3 0.9 0 0 0.1 0 0.1 0 0.3 0 0.5-0.1 0.6-0.4 0.8-1.5 2.3-2.4 4-2.3 0.1 0 0.1 0 0.2 0 0.3 0 0.6-0.2 0.7-0.5 1-2.6 2.1-4.8 3.5-6.3 0.2-0.2 0.2-0.6 0.1-0.8-0.2-0.3-0.5-0.4-0.8-0.3-5.1 1.3-9.7 4.4-13 8.6-0.1 0.2-0.2 0.4-0.1 0.7S26.1 25.4 26.3 25.5zM37.3 17.7c-0.8 1.3-1.6 2.8-2.2 4.5-1.9 0.1-3.6 1.1-4.7 2.6-1-0.2-1.9-0.4-2.7-0.5C30.3 21.4 33.7 19.1 37.3 17.7z" fill="#111111" data-fill-palette-color="accent"></path><path d="M62.5 27.6c-2.3 0.5-4.4 0.9-6.3 1.2-0.2 0-0.4 0.1-0.5 0.3-0.1 0.2-0.2 0.3-0.1 0.5 0.3 1.4 0.5 3 0.6 4.9 0 0.3 0.2 0.5 0.5 0.6 1.6 0.4 2.8 1.7 3.2 3.3 0.1 0.3 0.4 0.5 0.7 0.5h8.1c0.2 0 0.4-0.1 0.5-0.2 0.1-0.1 0.2-0.3 0.2-0.5-0.2-2.7-0.8-5.4-1.9-8-0.1-0.3-0.4-0.4-0.6-0.4-0.1 0-0.1 0-0.2 0-1.4 0-2.7-0.7-3.6-1.8C63 27.6 62.8 27.5 62.5 27.6zM66.5 31.1c0.8 2.1 1.4 4.2 1.6 6.4h-6.9c-0.6-1.7-1.9-3.1-3.6-3.7-0.1-1.4-0.3-2.7-0.5-3.8 1.6-0.2 3.3-0.6 5.2-1C63.4 30.3 64.9 31 66.5 31.1z" fill="#111111" data-fill-palette-color="accent"></path><path d="M38.1 24.7c0.8 0.6 1.3 1.4 1.5 2.3 0.1 0.3 0.3 0.5 0.6 0.5 1.7 0.1 3.5 0.2 5.2 0.2 2.4 0 4.8-0.1 7.1-0.3 0.2 0 0.4-0.1 0.5-0.3 0.1-0.2 0.2-0.4 0.1-0.6-1.8-6.7-4.9-10.8-8.1-10.8-2.7 0-5.4 3.1-7.2 8.2C37.8 24.2 37.9 24.5 38.1 24.7zM45.1 17.1c1.9 0 4.6 2.8 6.5 9-3.5 0.3-7.1 0.3-10.8 0.1-0.3-0.9-0.8-1.6-1.5-2.2C41 19.7 43.2 17.1 45.1 17.1z" fill="#111111" data-fill-palette-color="accent"></path><path d="M38.7 28.2c0-1.9-1.5-3.4-3.4-3.4-1.9 0-3.4 1.5-3.4 3.4s1.5 3.4 3.4 3.4C37.2 31.6 38.7 30.1 38.7 28.2zM35.3 30.2c-1.1 0-2-0.9-2-2s0.9-2 2-2c1.1 0 2 0.9 2 2S36.4 30.2 35.3 30.2z" fill="#111111" data-fill-palette-color="accent"></path><path d="M21.7 35.2c1.4 0.5 2.5 1.7 2.8 3.2 0.1 0.3 0.4 0.5 0.7 0.5H33c0.4 0 0.7-0.3 0.7-0.7 0-1.6 0.2-3.3 0.4-5.1 0-0.3-0.1-0.6-0.4-0.7-1.5-0.6-2.6-2-2.8-3.6 0-0.3-0.3-0.5-0.6-0.6-2-0.4-3.8-0.8-5.5-1.2-0.3-0.1-0.6 0.1-0.8 0.3-1.3 2.2-2.2 4.6-2.7 7.1C21.2 34.7 21.4 35 21.7 35.2zM24.9 28.4c1.4 0.4 2.9 0.7 4.6 1 0.4 1.7 1.5 3.2 3.1 4-0.2 1.4-0.3 2.8-0.3 4.1h-6.6c-0.5-1.5-1.6-2.7-3-3.4C23.2 32.1 24 30.1 24.9 28.4z" fill="#111111" data-fill-palette-color="accent"></path><path d="M55 26.5c0.1 0.3 0.4 0.5 0.7 0.5 0 0 0.1 0 0.1 0 1.8-0.2 3.7-0.6 6-1.1 0.3-0.1 0.6-0.4 0.5-0.8 0-0.6 0.1-1.3 0.4-1.9 0.1-0.3 0.1-0.6-0.1-0.8-3.2-3.3-7.2-5.7-11.5-6.8-0.3-0.1-0.6 0-0.8 0.3-0.2 0.3-0.1 0.6 0.1 0.8C52.3 19.1 53.9 22.4 55 26.5zM61.3 23.1c-0.2 0.5-0.3 1-0.4 1.5-1.8 0.4-3.3 0.7-4.8 0.9-0.9-3.1-2-5.8-3.4-7.9C56 18.8 58.9 20.7 61.3 23.1z" fill="#111111" data-fill-palette-color="accent"></path><path d="M54.1 35.1c0.3-0.1 0.5-0.4 0.5-0.7-0.2-1.8-0.4-3.4-0.6-4.8-0.1-0.4-0.4-0.6-0.8-0.6-2.7 0.3-5.4 0.4-8 0.4-1.4 0-3-0.1-4.9-0.2-0.3 0-0.6 0.2-0.7 0.4-0.5 1.4-1.7 2.4-3.1 2.8-0.3 0.1-0.5 0.3-0.5 0.6-0.2 1.8-0.3 3.5-0.4 5 0 0.2 0.1 0.4 0.2 0.5 0.1 0.1 0.3 0.2 0.5 0.2h14.4c0.3 0 0.6-0.2 0.7-0.5C51.6 36.9 52.7 35.7 54.1 35.1zM50.1 37.5H36.9c0.1-1.2 0.1-2.4 0.3-3.7 1.5-0.5 2.7-1.6 3.4-3 1.7 0.1 3.2 0.2 4.5 0.2 2.5 0 5-0.1 7.5-0.3 0.2 1 0.3 2.2 0.5 3.5C51.7 34.7 50.6 36 50.1 37.5z" fill="#111111" data-fill-palette-color="accent"></path><path d="M20.1 42.8c1.9 0 3.4-1.5 3.4-3.4 0-1.9-1.5-3.4-3.4-3.4-1.9 0-3.4 1.5-3.4 3.4C16.7 41.2 18.2 42.8 20.1 42.8zM20.1 37.4c1.1 0 2 0.9 2 2 0 1.1-0.9 2-2 2s-2-0.9-2-2C18.1 38.3 19 37.4 20.1 37.4z" fill="#111111" data-fill-palette-color="accent"></path><path d="M14.2 39.4c0 2.4 1.5 4.6 3.7 5.5 1.6 8.7 7.3 16.3 15.2 20.1 0.2 0.1 0.4 0.1 0.6 0 0 0.2 0.2 0.4 0.4 0.5 3.5 1.5 7.1 2.3 10.9 2.3 3.8 0 7.4-0.8 10.9-2.3 0.2-0.1 0.4-0.3 0.4-0.5 0.1 0.1 0.2 0.1 0.3 0.1 0.1 0 0.2 0 0.3-0.1 9.6-4.6 15.7-14.5 15.7-25.2 0-3.5-0.7-7-1.9-10.3 1.2-1.1 1.9-2.7 1.9-4.3 0-3.3-2.7-5.9-5.9-5.9-0.8 0-1.6 0.2-2.4 0.5-5.2-5.2-12-8-19.3-8-13 0-24.2 9.2-27 22C15.8 34.7 14.2 36.9 14.2 39.4zM35.2 64.4l0.4-6.3c0.1-2 1.7-2.5 2.3-2.6 0.1 0 0.2 0 0.3 0 0.1 0 0.2 0 0.3-0.1l-0.4 0.3c-0.2 0.2-0.3 0.4-0.3 0.6 0 0.2 0.2 0.4 0.4 0.5l1.9 0.9-0.8 1.3c-0.1 0.2-0.1 0.4 0 0.7l3 6.4C39.9 65.9 37.5 65.3 35.2 64.4zM45.4 66.3c-0.1-0.1-0.3-0.2-0.4-0.2l-0.1 0c-0.1 0-0.2 0-0.2 0-0.2 0-0.3 0.1-0.4 0.2 0 0-0.1 0-0.1 0l0.5-9.4c0-0.2-0.1-0.4-0.3-0.6l-0.1-0.1 0.3-0.9h1l0.3 0.9-0.1 0.1c-0.2 0.1-0.3 0.4-0.3 0.6l0.5 9.4C45.8 66.3 45.6 66.3 45.4 66.3zM45 53.2c-2.4 0-4.4-2.3-4.4-5.1 0-2.8 2-5.1 4.4-5.1 2.4 0 4.4 2.3 4.4 5.1C49.4 50.9 47.4 53.2 45 53.2zM47.7 66.2l3-6.4c0.1-0.2 0.1-0.5 0-0.7l-0.8-1.3 1.9-0.9c0.2-0.1 0.4-0.3 0.4-0.5s-0.1-0.5-0.3-0.6l-0.4-0.3c0.2 0 0.4 0.1 0.5 0.1l0.2 0c1.1 0.2 2.3 1 2.4 2.6l0.4 5.2 0.1 1.1C52.6 65.3 50.2 66 47.7 66.2zM18.9 35c0.3-0.1 0.4-0.3 0.5-0.5 2.5-12.3 13.3-21.3 25.7-21.3 7.1 0 13.7 2.8 18.7 7.9 0.2 0.2 0.6 0.3 0.8 0.1 0.7-0.4 1.4-0.6 2.2-0.6 2.5 0 4.5 2 4.5 4.5 0 1.4-0.6 2.7-1.8 3.6-0.2 0.2-0.3 0.5-0.2 0.8 1.3 3.2 2 6.7 2 10.2 0 10.1-5.9 19.5-14.9 23.9 0 0-0.1 0-0.1 0.1L56 58c-0.2-2-1.6-3.6-3.6-3.9l-0.2 0c-0.4-0.1-1.6-0.2-2.4-0.3v0c0 0-0.1 0-0.1 0-0.1 0-0.2 0-0.3 0-0.3 0-0.6 0.3-0.7 0.6-0.1 0.3 0 0.6 0.2 0.7l1.3 1.1-1.6 0.8c-0.2 0.1-0.3 0.2-0.4 0.4-0.1 0.2 0 0.4 0.1 0.6l1 1.7-2 4.2-0.4-6.6 0.2-0.2c0.2-0.2 0.3-0.5 0.2-0.8l-0.6-1.9c0 0 0 0 0-0.1 2.4-0.8 4.1-3.3 4.1-6.2 0-2.8-1.5-5.1-3.7-6.1h3.3c1 2 3 3.2 5.3 3.2 2.2 0 4.2-1.2 5.3-3.2h7.2c-0.4 4.6-2.2 8.9-5.1 12.5-0.2-0.1-0.4-0.1-0.7-0.2-0.3 0-1.6-0.2-2.2-0.3l-0.7 0c1.3-0.7 2.3-2.3 2.3-4.1 0-2.5-1.7-4.5-3.9-4.5-2.1 0-3.9 2-3.9 4.5 0 1.8 0.9 3.3 2.2 4 0 0 0 0 0 0-0.2 0-0.3 0.1-0.4 0.2-0.1 0.1-0.2 0.3-0.2 0.5 0 0.3 0.3 0.6 0.6 0.6 0 0 0.1 0 0.1 0h1.5l2.4 0.1c0.5 0 1.8 0.2 2.2 0.3 0.2 0 0.5 0.1 0.7 0.2 0.3 0.1 0.6 0.1 0.8-0.2 3.4-4.1 5.4-9.1 5.8-14.4 0-0.2-0.1-0.4-0.2-0.5-0.1-0.1-0.3-0.2-0.5-0.2h-8.4c-0.3 0-0.5 0.2-0.6 0.4-0.7 1.7-2.3 2.8-4.2 2.8s-3.5-1.1-4.2-2.8c-0.1-0.3-0.4-0.4-0.6-0.4H24.9c-0.3 0-0.5 0.2-0.6 0.4-0.5 1.2-1.5 2.1-2.7 2.5-0.3 0.1-0.5 0.4-0.5 0.8 0.8 4.2 2.7 8.2 5.4 11.4 0.1 0.2 0.3 0.2 0.5 0.2 0.1 0 0.2 0 0.3-0.1 0.2-0.1 0.4-0.2 0.8-0.2 0.3 0 1.6-0.2 2.1-0.3l2.4-0.1 1.5 0c0 0 0 0 0 0 0.4 0 0.7-0.3 0.8-0.6 0-0.2-0.1-0.4-0.2-0.5 2-0.7 3.5-2.8 3.5-5.4 0-3.1-2.1-5.6-4.8-5.6-2.6 0-4.8 2.5-4.8 5.6 0 2.3 1.2 4.3 2.9 5.2l-1.4 0.1c-0.5 0-1.8 0.2-2.3 0.3-0.2 0-0.4 0.1-0.6 0.1-2.3-2.8-3.9-6.2-4.7-9.8 1.2-0.6 2.2-1.5 2.8-2.7H43c-2.2 0.9-3.7 3.3-3.7 6.1 0 2.9 1.7 5.4 4.1 6.2 0 0 0 0 0 0.1l-0.6 1.9c-0.1 0.3 0 0.6 0.2 0.8l0.2 0.2-0.4 6.6-2-4.2 1-1.7c0.1-0.2 0.1-0.4 0.1-0.6-0.1-0.2-0.2-0.3-0.4-0.4l-1.6-0.8 1.3-1.1c0.2-0.2 0.3-0.5 0.2-0.8-0.1-0.3-0.4-0.5-0.7-0.5l-0.4 0c0 0-0.1 0-0.1 0-0.6 0.1-1.6 0.2-2.2 0.3 0 0-0.1 0-0.1 0-2 0.3-3.5 1.8-3.6 3.9l-0.4 5.8c0 0 0 0-0.1-0.1-7.7-3.7-13.1-11-14.5-19.5 0-0.3-0.2-0.5-0.5-0.6-1.9-0.6-3.2-2.3-3.2-4.3C15.6 37.4 17 35.6 18.9 35zM57.9 53.1c-1.4 0-2.5-1.4-2.5-3.1 0-1.7 1.1-3.1 2.5-3.1 1.4 0 2.5 1.4 2.5 3.1C60.4 51.7 59.2 53.1 57.9 53.1zM33.3 53.1c-1.9 0-3.4-1.9-3.4-4.2 0-2.3 1.5-4.2 3.4-4.2 1.9 0 3.4 1.9 3.4 4.2C36.7 51.2 35.1 53.1 33.3 53.1z" fill="#111111" data-fill-palette-color="accent"></path><path d="M74.9 31.3c0.4 0 0.8 0.1 1.1 0.1 0 0 0.1 0 0.1 0 0.3 0 0.6-0.3 0.7-0.6 0-0.4-0.2-0.7-0.6-0.8-0.4 0-0.8-0.1-1.2-0.1-0.4 0-0.7 0.3-0.8 0.6C74.2 30.9 74.5 31.3 74.9 31.3z" fill="#111111" data-fill-palette-color="accent"></path><path d="M70.5 58c-0.6 0.5-1.3 0.9-1.9 1.4-0.3 0.2-0.4 0.7-0.2 1 0.1 0.2 0.4 0.3 0.6 0.3 0.1 0 0.3 0 0.4-0.1 0.7-0.5 1.3-0.9 2-1.4 0.3-0.2 0.4-0.7 0.1-1C71.3 57.8 70.8 57.7 70.5 58z" fill="#111111" data-fill-palette-color="accent"></path><path d="M73.8 57c0.2 0 0.3-0.1 0.4-0.2 0.4-0.3 0.7-0.6 1.1-0.9 0.3-0.2 0.5-0.5 0.8-0.7 0.3-0.3 0.3-0.7 0.1-1-0.3-0.3-0.7-0.3-1-0.1-0.3 0.2-0.5 0.5-0.8 0.7-0.3 0.3-0.7 0.6-1 0.9-0.3 0.2-0.3 0.7-0.1 1C73.4 56.9 73.6 57 73.8 57z" fill="#111111" data-fill-palette-color="accent"></path><path d="M65.7 61.4c-0.7 0.4-1.3 0.9-2 1.3-0.3 0.2-0.4 0.6-0.2 1 0.1 0.2 0.4 0.3 0.6 0.3 0.1 0 0.3 0 0.4-0.1 0.7-0.4 1.4-0.9 2-1.3 0.3-0.2 0.4-0.6 0.2-1C66.4 61.3 66 61.2 65.7 61.4z" fill="#111111" data-fill-palette-color="accent"></path><path d="M9.9 76.3c-0.7-0.3-1.4-0.7-1.9-1.2-0.3-0.2-0.7-0.2-1 0.1-0.2 0.3-0.2 0.7 0.1 1 0.6 0.5 1.4 1 2.2 1.3 0.1 0 0.2 0.1 0.3 0.1 0.3 0 0.5-0.2 0.6-0.4C10.4 76.8 10.2 76.4 9.9 76.3z" fill="#111111" data-fill-palette-color="accent"></path><path d="M78.2 53c0.2 0 0.4-0.1 0.5-0.2 0.6-0.6 1.1-1.2 1.7-1.8 0.3-0.3 0.2-0.7 0-1-0.3-0.3-0.7-0.2-1 0-0.5 0.6-1.1 1.1-1.6 1.7-0.3 0.3-0.3 0.7 0 1C77.9 52.9 78.1 53 78.2 53z" fill="#111111" data-fill-palette-color="accent"></path><path d="M84.8 36c0.1 0.3 0.2 0.6 0.3 0.9 0.1 0.3 0.4 0.5 0.7 0.5 0.1 0 0.1 0 0.2 0 0.4-0.1 0.6-0.5 0.5-0.9-0.1-0.4-0.2-0.7-0.4-1.1-0.2-0.5-0.5-0.9-0.8-1.3-0.2-0.3-0.7-0.4-1-0.1-0.3 0.2-0.4 0.7-0.1 1C84.4 35.3 84.6 35.7 84.8 36z" fill="#111111" data-fill-palette-color="accent"></path><path d="M86 39.6c-0.4-0.1-0.7 0.2-0.8 0.6-0.1 0.7-0.3 1.4-0.6 2.2-0.1 0.4 0 0.8 0.4 0.9 0.1 0 0.2 0 0.3 0 0.3 0 0.5-0.2 0.7-0.4 0.3-0.8 0.6-1.7 0.7-2.4C86.6 40 86.4 39.6 86 39.6z" fill="#111111" data-fill-palette-color="accent"></path><path d="M33.1 75.8c-0.8 0.2-1.6 0.4-2.3 0.5-0.4 0.1-0.6 0.5-0.5 0.8 0.1 0.3 0.4 0.5 0.7 0.5 0 0 0.1 0 0.2 0 0.8-0.2 1.6-0.4 2.4-0.6 0.4-0.1 0.6-0.5 0.5-0.8C33.8 75.9 33.4 75.7 33.1 75.8z" fill="#111111" data-fill-palette-color="accent"></path><path d="M81.8 48.3c0.1 0.1 0.3 0.1 0.4 0.1 0.2 0 0.4-0.1 0.6-0.3 0.5-0.7 1-1.4 1.4-2 0.2-0.3 0.1-0.8-0.2-1-0.3-0.2-0.8-0.1-1 0.2-0.4 0.6-0.8 1.3-1.3 1.9C81.4 47.6 81.5 48.1 81.8 48.3z" fill="#111111" data-fill-palette-color="accent"></path><path d="M79.5 32.1c0.8 0.2 1.5 0.5 2.1 0.8 0.1 0.1 0.2 0.1 0.3 0.1 0.3 0 0.5-0.1 0.6-0.4 0.2-0.3 0-0.8-0.3-0.9-0.7-0.4-1.5-0.7-2.3-0.9-0.4-0.1-0.8 0.1-0.9 0.5S79.1 32 79.5 32.1z" fill="#111111" data-fill-palette-color="accent"></path><path d="M38.8 74.1c-0.8 0.2-1.5 0.5-2.3 0.7-0.4 0.1-0.6 0.5-0.5 0.9 0.1 0.3 0.4 0.5 0.7 0.5 0.1 0 0.1 0 0.2 0 0.8-0.2 1.5-0.5 2.3-0.7 0.4-0.1 0.6-0.5 0.5-0.9C39.6 74.2 39.2 74 38.8 74.1z" fill="#111111" data-fill-palette-color="accent"></path><path d="M49.9 69.9c-0.7 0.3-1.5 0.6-2.2 0.9-0.4 0.1-0.5 0.6-0.4 0.9 0.1 0.3 0.4 0.4 0.6 0.4 0.1 0 0.2 0 0.3-0.1 0.7-0.3 1.5-0.6 2.2-1 0.4-0.2 0.5-0.6 0.4-0.9C50.7 69.9 50.3 69.7 49.9 69.9z" fill="#111111" data-fill-palette-color="accent"></path><path d="M15.5 77.6c-0.8-0.1-1.6-0.2-2.3-0.3-0.4-0.1-0.7 0.2-0.8 0.5-0.1 0.4 0.2 0.7 0.5 0.8 0.8 0.2 1.6 0.3 2.4 0.4 0 0 0 0 0.1 0 0.4 0 0.7-0.3 0.7-0.6C16.1 78 15.9 77.7 15.5 77.6z" fill="#111111" data-fill-palette-color="accent"></path><path d="M26.8 77.1c-0.6 0.1-1.3 0.2-1.9 0.3-0.4 0-0.7 0.4-0.6 0.8 0 0.4 0.3 0.6 0.7 0.6 0 0 0.1 0 0.1 0 0.6-0.1 1.3-0.2 1.9-0.3l0.4-0.1L27.2 77 26.8 77.1z" fill="#111111" data-fill-palette-color="accent"></path><path d="M5.7 70.5c0-0.4-0.3-0.7-0.7-0.7 0 0 0 0 0 0-0.4 0-0.7 0.3-0.7 0.7 0 0.9 0.2 1.8 0.5 2.6 0.1 0.3 0.4 0.4 0.7 0.4 0.1 0 0.2 0 0.3 0 0.4-0.1 0.5-0.5 0.4-0.9C5.8 71.9 5.7 71.2 5.7 70.5z" fill="#111111" data-fill-palette-color="accent"></path><path d="M60.6 64.5c-0.7 0.4-1.4 0.8-2.1 1.2-0.3 0.2-0.5 0.6-0.3 0.9 0.1 0.2 0.4 0.4 0.6 0.4 0.1 0 0.2 0 0.3-0.1 0.7-0.4 1.4-0.8 2.1-1.2 0.3-0.2 0.4-0.6 0.3-1C61.3 64.4 60.9 64.3 60.6 64.5z" fill="#111111" data-fill-palette-color="accent"></path><path d="M6.9 64.1c-0.3-0.2-0.8 0-0.9 0.3-0.4 0.8-0.7 1.6-1 2.3-0.1 0.4 0.1 0.8 0.4 0.9 0.1 0 0.2 0 0.2 0 0.3 0 0.6-0.2 0.7-0.5 0.2-0.7 0.5-1.4 0.9-2.1C7.4 64.7 7.2 64.3 6.9 64.1z" fill="#111111" data-fill-palette-color="accent"></path><path d="M55.3 67.3c-0.7 0.4-1.4 0.7-2.1 1.1-0.3 0.2-0.5 0.6-0.3 0.9 0.1 0.2 0.4 0.4 0.6 0.4 0.1 0 0.2 0 0.3-0.1 0.7-0.4 1.5-0.7 2.2-1.1 0.3-0.2 0.5-0.6 0.3-0.9S55.7 67.1 55.3 67.3z" fill="#111111" data-fill-palette-color="accent"></path><path d="M9.4 59.3c-0.5 0.7-1 1.3-1.5 1.9-0.2 0.3-0.2 0.8 0.2 1 0.1 0.1 0.3 0.1 0.4 0.1 0.2 0 0.4-0.1 0.6-0.3 0.4-0.6 0.9-1.2 1.4-1.9 0.2-0.3 0.2-0.7-0.1-1C10.1 59 9.7 59 9.4 59.3z" fill="#111111" data-fill-palette-color="accent"></path><path d="M21.4 77.7c-0.8 0.1-1.6 0.1-2.4 0.1-0.4 0-0.7 0.3-0.7 0.7 0 0.4 0.3 0.7 0.7 0.7 0 0 0 0 0 0 0.8 0 1.6 0 2.4-0.1 0.4 0 0.7-0.4 0.7-0.7C22.1 78 21.8 77.7 21.4 77.7z" fill="#111111" data-fill-palette-color="accent"></path><path d="M12.9 57.6c0.3-0.3 0.5-0.5 0.8-0.8 0.3-0.3 0.3-0.7 0-1-0.3-0.3-0.7-0.3-1 0-0.3 0.3-0.6 0.6-0.8 0.8-0.3 0.3-0.3 0.7 0 1 0.1 0.1 0.3 0.2 0.5 0.2C12.6 57.8 12.8 57.7 12.9 57.6z" fill="#111111" data-fill-palette-color="accent"></path><path d="M77.6 55.1c-0.3-0.3-0.7-0.3-1 0-0.3 0.3-0.3 0.7 0 1 7.1 6.7 10.1 12.8 8.2 16.9-2 4.2-9.5 5.8-20 4.2-8-1.2-17-4.1-26-8.3-10.6-5-19.9-11.3-26-17.6-5.8-6-8.2-11.5-6.5-15.2 1.4-2.9 5.1-4.5 10.9-4.8 0.4 0 0.7-0.3 0.7-0.7 0-0.4-0.4-0.7-0.7-0.7C10.7 30.1 6.6 32.1 5 35.4c-2 4.3 0.4 10.2 6.7 16.8C18 58.7 27.4 65 38.2 70.1c1.8 0.9 3.6 1.6 5.4 2.4-0.5 0.2-0.9 0.4-1.4 0.5-0.4 0.1-0.6 0.5-0.4 0.9 0.1 0.3 0.4 0.5 0.7 0.5 0.1 0 0.2 0 0.2 0 0.8-0.3 1.5-0.5 2.3-0.8 0.2-0.1 0.3-0.2 0.4-0.3 6.7 2.6 13.3 4.5 19.3 5.4 2.8 0.4 5.4 0.6 7.7 0.6 7.1 0 12-1.9 13.7-5.6C88.2 68.9 85.2 62.3 77.6 55.1z" fill="#111111" data-fill-palette-color="accent"></path></g></svg></g></svg></g></svg></g><defs></defs></svg><rect width="395.52" height="85.11281174006675" fill="none" stroke="none" visibility="hidden"></rect></g></svg></g></svg>